# xmcd
#
# Track frame offsets: 
#        150
#        11051
#        23409
#        35485
#        52183
#        62272
#        71881
#        82947
#        92477
#        114248
#        131277
#        141611
#        160195
#        175793
#        198134
#        207186
#        223291
#        239278
#        251931
#        262279
#
# Disc length: 3624 seconds
#
# Revision: 0
# Processed by: cddbd v1.5.2PL0 Copyright (c) Steve Scherf et al.
# Submitted via: ExactAudioCopy v0.99pb4
#
DISCID=1f0e2614
DTITLE=Eric Clapton - 20 Super Sucessos
DYEAR=2008
DGENRE=Blues
TTITLE0=Think Is Over
TTITLE1=Everything I Do Is Wrong
TTITLE2=Highway
TTITLE3=(They Call It) Stormy Monday Blues
TTITLE4=A Certain Girl
TTITLE5=Lovin' Up A Storm
TTITLE6=Snake Drive
TTITLE7=One Long Kiss
TTITLE8=The First Time I Met The Blues
TTITLE9=Big Boss Man
TTITLE10=Got To Hurry
TTITLE11=Stormy Monday Blues
TTITLE12=Train Kept A-rollin'
TTITLE13=Five Long Years
TTITLE14=Boll Weevil Song
TTITLE15=Early In The Morning
TTITLE16=Little Red Rooster
TTITLE17=Freight Loader
TTITLE18=West Coast Idea
TTITLE19=Livin Lovin Wreck
EXTD=
EXTT0=
EXTT1=
EXTT2=
EXTT3=
EXTT4=
EXTT5=
EXTT6=
EXTT7=
EXTT8=
EXTT9=
EXTT10=
EXTT11=
EXTT12=
EXTT13=
EXTT14=
EXTT15=
EXTT16=
EXTT17=
EXTT18=
EXTT19=
PLAYORDER=
